<?xml version="1.0" encoding="utf-8"?>
<svg version="1.1" id="Layer_1" xmlns="http://www.w3.org/2000/svg" x="0px" y="0px" width="591px" height="291px" viewBox="0 0 591 291" enable-background="new 0 0 591 291" xmlns:bx="https://boxy-svg.com">
  <rect x="108.105" y="247.631" fill="none" width="398.298" height="30.036"/>
  <text style="fill: rgb(253, 145, 85); font-family: Montserrat; font-size: 26px; white-space: pre;" x="97.228" y="260.678">SZTUKA OGRODÓW ZIMOWYCH</text>
  <g>
    <path fill="#FD9155" d="M371.584,75.968c-0.102-0.148-0.18-0.315-0.223-0.502c-0.096-0.138-0.156-0.275-0.201-0.425 c-0.055-0.078-0.109-0.154-0.155-0.235l-29.718-41.433c-0.001,0-0.008-0.003-0.014-0.003c-0.475-0.357-0.688-0.579-1.26-0.667 c-0.147-0.027-0.297-0.064-0.436-0.113h-86.256c-0.064,0.027-0.126,0.049-0.191,0.072c-0.116,0.014-0.232,0.028-0.352,0.046 c0.041,0-0.282,0.174-0.354,0.222c-0.03,0.025-0.06,0.047-0.074,0.052c-0.143,0.117-0.289,0.219-0.437,0.313l-29.688,41.39 c-0.061,0.126-0.144,0.248-0.248,0.37c-0.267,0.301-0.501,1.527-0.406,1.923c0.192,0.774,0.409,1.027,0.883,1.709 c0.025,0.031,0.033,0.057,0.053,0.09l71.606,74.084c0.088,0.059,0.303,0.229,0.348,0.256c0.197,0.119,0.395,0.242,0.584,0.374 c0.086,0.065,0.184,0.106,0.268,0.166c0.256,0.038,0.653,0.312,0.75,0.299l0.006,0.003c0.007,0,0.016,0,0.016,0 c1.104,0.262,0.473,0.055,0.656,0.141c0.021-0.007,0.061-0.007,0.079-0.012c0.354-0.095,0.562-0.148,0.896-0.35 c0.375-0.221,0.735-0.432,1.096-0.646l72.438-74.958c0.05-0.083,0.097-0.163,0.144-0.254c0.045-0.077,0.092-0.15,0.149-0.22 c0.002-0.013,0.016-0.022,0.021-0.035c0.084-0.313,0.138-0.631,0.123-0.97C371.674,76.429,371.611,76.203,371.584,75.968z M296.615,142.877L237.849,74.48l21.198-29.271l74.825-1.242l23.44,31.472L296.615,142.877z"/>
    <polygon fill="#FD9155" points="297.607,93.105 268.868,93.105 241,69.968 243.724,66.684 270.41,88.838 297.607,88.838 &#9;"/>
    <polygon fill="#FD9155" points="269.46,120.469 267.486,120.469 267.486,90.805 295.771,44.233 299.421,46.448 269.36,91.134 &#9;"/>
    <rect x="267.864" y="27.055" transform="matrix(-0.4127 -0.9109 0.9109 -0.4127 329.1666 326.9771)" fill="#FD9155" width="4.274" height="60.619"/>
    <rect x="241.423" y="69.32" fill="#FD9155" width="1.954" height="24.821"/>
    <polygon fill="#FD9155" points="326.348,93.105 297.607,93.105 297.607,88.838 324.809,88.838 351.49,66.684 354.215,69.968 &#9;"/>
    <polygon fill="#FD9155" points="327.719,120.038 325.707,119.594 325.934,90.269 295.922,45.782 299.434,43.807 327.719,90.369 &#9;&#10;&#9;&#9;"/>
    <rect x="294.916" y="55.266" transform="matrix(-0.9114 -0.4115 0.4115 -0.9114 598.0074 243.5421)" fill="#FD9155" width="60.608" height="4.266"/>
    <rect x="352.111" y="69.32" fill="#FD9155" width="1.68" height="24.821"/>
  </g>
  <g>
    <path fill="#FD9155" d="M122.838,181.523c0.815,0.774,1.223,1.787,1.223,3.024c0,2.019-0.601,3.804-1.802,5.353 c-1.204,1.555-3.083,2.363-5.647,2.443c-6.209,0.152-11.717-0.312-16.528-1.398c-5.509,11.57-12.163,21.168-19.961,28.811 c-7.797,7.643-15.615,11.465-23.454,11.465c-8.068,0-14.082-4.693-18.04-14.086c-3.957-9.383-5.936-22.072-5.936-38.062 c0-13.651,0.97-25.913,2.909-36.778c0.7-4.032,1.689-6.767,2.969-8.205c1.281-1.434,3.473-2.154,6.575-2.154 c5.122,0,7.684,2.211,7.684,6.633c0,0.466-0.077,1.321-0.232,2.561c-2.328,13.968-3.491,26.616-3.491,37.94 c0,11.871,0.986,20.896,2.967,27.062c1.979,6.169,4.947,9.254,8.904,9.254c4.034,0,8.417-2.795,13.151-8.381 c4.733-5.586,9.081-12.607,13.036-21.066c-4.736-2.947-8.303-6.771-10.709-11.465c-2.407-4.691-3.607-10.104-3.607-16.235 c0-6.13,0.948-11.306,2.851-15.537c1.899-4.227,4.499-7.39,7.799-9.486c3.296-2.094,6.962-3.139,10.997-3.139 c4.964,0,8.903,1.783,11.814,5.35c2.91,3.573,4.363,8.463,4.363,14.665c0,8.926-1.939,18.663-5.82,29.215 c4.113,0.691,8.809,1.049,14.084,1.049C120.725,180.359,122.024,180.75,122.838,181.523z M91.939,174.309 c3.023-8.688,4.538-15.863,4.538-21.531c0-3.258-0.427-5.646-1.28-7.154c-0.855-1.515-2.019-2.271-3.493-2.271 c-2.096,0-3.801,1.225-5.12,3.667c-1.322,2.443-1.981,5.918-1.981,10.418C84.604,165.039,87.049,170.664,91.939,174.309z"/>
    <path fill="#FD9155" d="M167.068,206.086c0.58,0.928,0.871,2.211,0.871,3.838c0,3.104-0.739,5.51-2.211,7.217 c-2.872,3.492-6.927,6.713-12.165,9.66c-5.234,2.949-10.844,4.424-16.817,4.424c-8.149,0-14.472-2.209-18.973-6.633 c-4.502-4.424-6.75-10.476-6.75-18.156c0-5.354,1.125-10.338,3.376-14.955c2.25-4.619,5.373-8.285,9.37-11.002 c3.995-2.715,8.513-4.072,13.558-4.072c4.502,0,8.106,1.342,10.825,4.017c2.715,2.677,4.074,6.306,4.074,10.884 c0,5.354-1.92,9.949-5.76,13.795c-3.842,3.838-10.342,6.887-19.496,9.133c1.937,3.569,5.623,5.353,11.058,5.353 c3.492,0,7.465-1.226,11.929-3.665c4.459-2.445,8.321-5.646,11.579-9.604c0.932-1.088,1.979-1.629,3.14-1.629 C165.69,204.686,166.485,205.154,167.068,206.086z M128.075,192.814c-1.978,3.34-2.969,7.373-2.969,12.106v0.229 c4.579-1.086,8.188-2.715,10.825-4.887c2.639-2.172,3.959-4.695,3.959-7.562c0-1.475-0.406-2.662-1.222-3.555 c-0.818-0.892-1.921-1.338-3.318-1.338C132.479,187.811,130.055,189.479,128.075,192.814z"/>
    <path fill="#FD9155" d="M160.549,226.568c-1.206-3.104-1.806-8.069-1.806-14.9c0-10.083,1.434-19.67,4.305-28.752 c0.701-2.246,1.843-3.893,3.435-4.946c1.591-1.044,3.823-1.567,6.694-1.567c1.552,0,2.637,0.191,3.259,0.584 c0.622,0.389,0.931,1.123,0.931,2.213c0,1.24-0.581,4.033-1.747,8.377c-0.776,3.104-1.396,5.818-1.862,8.146 c-0.465,2.328-0.855,5.201-1.165,8.615c2.562-6.671,5.433-12.105,8.615-16.297c3.181-4.188,6.301-7.172,9.368-8.96 c3.064-1.782,5.878-2.677,8.438-2.677c5.044,0,7.566,2.521,7.566,7.563c0,1.009-0.349,3.45-1.05,7.332 c-0.62,3.104-0.929,5.05-0.929,5.822c0,2.715,0.972,4.071,2.911,4.071c2.17,0,4.964-1.703,8.379-5.12 c1.008-1.007,2.057-1.517,3.143-1.517c1.005,0,1.805,0.448,2.385,1.342c0.581,0.895,0.873,2.076,0.873,3.549 c0,2.876-0.774,5.127-2.328,6.755c-2.175,2.252-4.712,4.173-7.623,5.762c-2.91,1.593-5.996,2.386-9.252,2.386 c-4.112,0-7.235-1.048-9.37-3.142c-2.136-2.101-3.201-4.928-3.201-8.498c0-1.163,0.114-2.326,0.35-3.493 c0.153-1.548,0.235-2.599,0.235-3.14c0-1.241-0.429-1.863-1.284-1.863c-1.165,0-2.695,1.306-4.596,3.899 c-1.902,2.602-3.784,6.033-5.646,10.304c-1.861,4.267-3.374,8.767-4.538,13.495c-0.854,3.646-1.844,6.111-2.969,7.395 c-1.124,1.278-2.891,1.92-5.295,1.92C163.827,231.225,161.75,229.676,160.549,226.568z"/>
    <path fill="#FD9155" d="M214.262,225.986c-2.872-3.491-4.307-8.068-4.307-13.731c0-6.21,1.435-12.086,4.307-17.636 c2.87-5.549,6.691-10.012,11.464-13.385c4.771-3.379,9.834-5.062,15.19-5.062c1.705,0,2.849,0.329,3.433,0.987 c0.582,0.657,1.067,1.843,1.455,3.551c1.631-0.308,3.334-0.467,5.123-0.467c3.799,0,5.704,1.356,5.704,4.075 c0,1.632-0.583,5.511-1.749,11.638c-1.785,8.928-2.677,15.135-2.677,18.624c0,1.165,0.291,2.095,0.872,2.796 c0.582,0.696,1.343,1.045,2.27,1.045c1.472,0,3.259-0.948,5.354-2.848c2.095-1.9,4.929-4.986,8.497-9.251 c0.933-1.09,1.98-1.635,3.143-1.635c1.008,0,1.804,0.469,2.385,1.399c0.581,0.929,0.872,2.211,0.872,3.84 c0,3.103-0.736,5.511-2.212,7.216c-3.183,3.957-6.557,7.295-10.127,10.006c-3.569,2.725-7.023,4.076-10.358,4.076 c-2.559,0-4.909-0.875-7.042-2.615c-2.135-1.752-3.743-4.137-4.828-7.159c-4.036,6.516-9.12,9.772-15.249,9.772 C220.972,231.225,217.132,229.479,214.262,225.986z M234.862,216.443c1.55-2.019,2.677-4.694,3.377-8.03l4.305-21.419 c-3.258,0.076-6.266,1.299-9.021,3.669c-2.755,2.362-4.947,5.491-6.576,9.368c-1.629,3.883-2.445,7.994-2.445,12.338 c0,2.406,0.484,4.189,1.458,5.354c0.97,1.162,2.306,1.746,4.015,1.746C231.68,219.47,233.309,218.463,234.862,216.443z"/>
    <path fill="#FD9155" d="M268.208,226.568c-1.206-3.104-1.806-8.069-1.806-14.9c0-10.083,1.437-19.67,4.305-28.752 c0.7-2.246,1.843-3.893,3.436-4.946c1.59-1.044,3.821-1.567,6.691-1.567c1.552,0,2.639,0.191,3.258,0.584 c0.622,0.389,0.933,1.123,0.933,2.213c0,1.24-0.583,4.033-1.749,8.377c-0.777,3.104-1.394,5.818-1.862,8.146 c-0.465,2.328-0.856,5.201-1.164,8.615c2.561-6.671,5.43-12.105,8.612-16.297c3.182-4.188,6.303-7.172,9.369-8.96 c3.064-1.782,5.879-2.677,8.438-2.677c5.047,0,7.567,2.521,7.567,7.563c0,3.022-0.858,8.495-2.564,16.412 c-1.475,6.751-2.208,11.211-2.208,13.384c0,3.104,1.123,4.654,3.374,4.654c1.555,0,3.396-0.95,5.53-2.85 c2.133-1.902,4.986-4.985,8.555-9.252c0.932-1.09,1.979-1.633,3.141-1.633c1.012,0,1.809,0.467,2.392,1.396 c0.579,0.932,0.869,2.214,0.869,3.844c0,3.1-0.736,5.51-2.211,7.215c-3.335,4.112-6.925,7.492-10.768,10.125 c-3.84,2.639-8.207,3.957-13.094,3.957c-3.961,0-6.947-1.143-8.962-3.433c-2.02-2.286-3.022-5.604-3.022-9.953 c0-2.17,0.539-6.052,1.625-11.637c1.009-4.89,1.518-8.263,1.518-10.128c0-1.238-0.432-1.862-1.284-1.862 c-1.009,0-2.424,1.306-4.247,3.901c-1.823,2.599-3.686,6.033-5.589,10.304c-1.899,4.265-3.433,8.765-4.594,13.495 c-0.857,3.648-1.846,6.113-2.969,7.393c-1.123,1.277-2.892,1.918-5.296,1.918C271.485,231.225,269.408,229.676,268.208,226.568z"/>
    <path fill="#FD9155" d="M392.396,206.086c0.58,0.928,0.865,2.211,0.865,3.838c0,3.104-0.732,5.51-2.209,7.217 c-3.183,3.879-6.673,7.2-10.478,9.953c-3.8,2.756-7.562,4.131-11.286,4.131c-5.897,0-10.399-3.451-13.501-10.356 c-3.261,4.112-6.111,6.864-8.553,8.264c-2.443,1.396-5.3,2.097-8.561,2.097c-4.731,0-8.63-1.764-11.696-5.297 c-3.062-3.531-4.595-8.128-4.595-13.787c0-6.211,1.317-11.974,3.959-17.293c2.636-5.31,6.265-9.658,10.879-13.033 c4.612-3.375,9.796-5.369,15.541-5.992c1.475-15.051,4.285-27.914,8.437-38.585c4.149-10.666,9.604-16.005,16.354-16.005 c3.331,0,6.107,1.517,8.322,4.542c2.209,3.025,3.316,7.606,3.316,13.734c0,8.692-2.137,18.858-6.402,30.496 c-4.268,11.643-9.971,23.59-17.109,35.852c0.311,4.498,0.988,7.724,2.037,9.658c1.045,1.941,2.385,2.911,4.011,2.911 c2.102,0,4.229-0.932,6.403-2.792c2.17-1.867,5.081-4.968,8.73-9.312c0.929-1.089,1.979-1.632,3.141-1.632 C391.016,204.686,391.815,205.154,392.396,206.086z M347.177,217.665c1.478-1.2,3.336-3.433,5.592-6.688 c-0.778-4.19-1.165-8.884-1.165-14.086c0-1.859,0.074-4.89,0.23-9.078c-4.268,1.317-7.817,4.172-10.65,8.555 c-2.834,4.386-4.251,9.253-4.251,14.613c0,5.66,1.942,8.492,5.825,8.492C344.229,219.47,345.704,218.871,347.177,217.665z M371.85,140.496c-1.473,5.239-2.731,12.087-3.78,20.543c-1.046,8.462-1.806,17.306-2.268,26.537 c8.688-18.932,13.034-34.141,13.034-45.623c0-2.948-0.252-5.236-0.757-6.866c-0.505-1.632-1.107-2.446-1.803-2.446 C374.801,132.642,373.322,135.261,371.85,140.496z"/>
    <path fill="#FD9155" d="M385.47,225.986c-2.874-3.491-4.305-8.068-4.305-13.731c0-6.21,1.434-12.086,4.305-17.636 c2.869-5.549,6.692-10.012,11.465-13.385c4.77-3.379,9.834-5.062,15.189-5.062c1.703,0,2.848,0.329,3.431,0.987 c0.582,0.657,1.065,1.843,1.455,3.551c1.63-0.308,3.333-0.467,5.12-0.467c3.803,0,5.706,1.356,5.706,4.075 c0,1.632-0.585,5.511-1.747,11.638c-1.786,8.928-2.678,15.135-2.678,18.624c0,1.165,0.29,2.095,0.871,2.796 c0.584,0.696,1.339,1.045,2.27,1.045c1.478,0,3.26-0.948,5.354-2.848c2.097-1.9,4.928-4.986,8.498-9.251 c0.929-1.09,1.977-1.635,3.142-1.635c1.008,0,1.803,0.469,2.386,1.399c0.584,0.931,0.871,2.211,0.871,3.84 c0,3.103-0.735,5.511-2.209,7.216c-3.184,3.957-6.561,7.295-10.128,10.006c-3.572,2.725-7.021,4.076-10.358,4.076 c-2.562,0-4.906-0.875-7.039-2.615c-2.139-1.752-3.743-4.137-4.832-7.159c-4.035,6.516-9.117,9.772-15.244,9.772 C392.179,231.225,388.339,229.479,385.47,225.986z M406.071,216.443c1.554-2.019,2.679-4.694,3.38-8.03l4.305-21.419 c-3.261,0.076-6.267,1.299-9.019,3.669c-2.755,2.362-4.947,5.491-6.578,9.368c-1.634,3.883-2.444,7.994-2.444,12.338 c0,2.406,0.482,4.189,1.459,5.354c0.964,1.162,2.303,1.746,4.015,1.746C402.891,219.47,404.52,218.463,406.071,216.443z"/>
    <path fill="#FD9155" d="M439.413,226.568c-1.201-3.104-1.801-8.069-1.801-14.9c0-10.083,1.437-19.67,4.306-28.752 c0.696-2.246,1.845-3.893,3.433-4.946c1.592-1.044,3.821-1.567,6.694-1.567c1.552,0,2.637,0.191,3.257,0.584 c0.623,0.389,0.938,1.123,0.938,2.213c0,1.24-0.585,4.033-1.751,8.377c-0.773,3.104-1.396,5.818-1.861,8.146 s-0.852,5.201-1.162,8.615c2.562-6.671,5.428-12.105,8.612-16.297c3.182-4.188,6.306-7.172,9.373-8.96 c3.062-1.782,5.877-2.677,8.435-2.677c5.045,0,7.565,2.521,7.565,7.563c0,3.022-0.854,8.495-2.558,16.412 c-1.479,6.751-2.217,11.211-2.217,13.384c0,3.104,1.124,4.654,3.38,4.654c1.552,0,3.392-0.95,5.525-2.85 c2.135-1.902,4.98-4.985,8.553-9.252c0.934-1.09,1.979-1.633,3.146-1.633c1.007,0,1.801,0.467,2.385,1.396 c0.58,0.932,0.869,2.214,0.869,3.844c0,3.1-0.736,5.51-2.205,7.215c-3.339,4.112-6.924,7.492-10.771,10.125 c-3.842,2.639-8.206,3.957-13.095,3.957c-3.957,0-6.947-1.143-8.957-3.433c-2.021-2.286-3.03-5.604-3.03-9.953 c0-2.17,0.541-6.052,1.634-11.637c1.006-4.89,1.515-8.263,1.515-10.128c0-1.238-0.43-1.862-1.28-1.862 c-1.011,0-2.43,1.306-4.249,3.901c-1.823,2.599-3.688,6.033-5.587,10.304c-1.906,4.265-3.437,8.765-4.599,13.495 c-0.854,3.648-1.845,6.113-2.969,7.393c-1.124,1.277-2.891,1.918-5.296,1.918C442.696,231.225,440.618,229.676,439.413,226.568z"/>
    <path fill="#FD9155" d="M497.9,225.986c-2.869-3.491-4.31-8.068-4.31-13.731c0-6.21,1.438-12.086,4.31-17.636 c2.871-5.549,6.691-10.012,11.461-13.385c4.771-3.379,9.835-5.062,15.19-5.062c1.703,0,2.85,0.329,3.435,0.987 c0.584,0.657,1.062,1.843,1.453,3.551c1.634-0.308,3.34-0.467,5.121-0.467c3.805,0,5.706,1.356,5.706,4.075 c0,1.632-0.579,5.511-1.747,11.638c-1.785,8.928-2.68,15.135-2.68,18.624c0,1.165,0.289,2.095,0.873,2.796 c0.583,0.696,1.341,1.045,2.271,1.045c1.471,0,3.259-0.948,5.354-2.848c2.094-1.9,4.923-4.986,8.494-9.251 c0.931-1.09,1.979-1.635,3.14-1.635c1.013,0,1.809,0.469,2.393,1.399c0.58,0.929,0.87,2.211,0.87,3.84 c0,3.103-0.74,5.511-2.211,7.216c-3.187,3.957-6.56,7.295-10.126,10.006c-3.569,2.725-7.024,4.076-10.359,4.076 c-2.564,0-4.912-0.875-7.04-2.615c-2.14-1.752-3.745-4.137-4.834-7.159c-4.032,6.516-9.116,9.772-15.244,9.772 C504.612,231.225,500.771,229.479,497.9,225.986z M518.504,216.443c1.555-2.019,2.679-4.694,3.371-8.03l4.31-21.419 c-3.258,0.076-6.266,1.299-9.021,3.669c-2.755,2.362-4.946,5.491-6.575,9.368c-1.63,3.883-2.446,7.994-2.446,12.338 c0,2.406,0.483,4.189,1.455,5.354c0.972,1.162,2.312,1.746,4.021,1.746C515.325,219.47,516.947,218.463,518.504,216.443z"/>
  </g>
  <defs>
    <style bx:fonts="Montserrat">@import url(https://fonts.googleapis.com/css2?family=Montserrat%3Aital%2Cwght%400%2C100..900%3B1%2C100..900&amp;display=swap);</style>
  </defs>
</svg>